<?xml version="1.0" standalone="no"?>
<svg xmlns:xlink="http://www.w3.org/1999/xlink" id="wave" style="transform:rotate(180deg); transition: 0.3s" viewBox="0 0 1440 490" version="1.1" xmlns="http://www.w3.org/2000/svg"><defs><linearGradient id="sw-gradient-0" x1="0" x2="0" y1="1" y2="0"><stop stop-color="rgba(207.557, 59.016, 11.31, 1)" offset="0%"/><stop stop-color="rgba(255, 179, 11, 1)" offset="100%"/></linearGradient></defs><path style="transform:translate(0, 0px); opacity:1" fill="url(#sw-gradient-0)" d="M0,0L48,24.5C96,49,192,98,288,163.3C384,229,480,310,576,302.2C672,294,768,196,864,130.7C960,65,1056,33,1152,40.8C1248,49,1344,98,1440,163.3C1536,229,1632,310,1728,343C1824,376,1920,359,2016,326.7C2112,294,2208,245,2304,220.5C2400,196,2496,196,2592,179.7C2688,163,2784,131,2880,163.3C2976,196,3072,294,3168,285.8C3264,278,3360,163,3456,130.7C3552,98,3648,147,3744,212.3C3840,278,3936,359,4032,375.7C4128,392,4224,343,4320,277.7C4416,212,4512,131,4608,155.2C4704,180,4800,310,4896,318.5C4992,327,5088,212,5184,155.2C5280,98,5376,98,5472,130.7C5568,163,5664,229,5760,212.3C5856,196,5952,98,6048,98C6144,98,6240,196,6336,269.5C6432,343,6528,392,6624,383.8C6720,376,6816,310,6864,277.7L6912,245L6912,490L6864,490C6816,490,6720,490,6624,490C6528,490,6432,490,6336,490C6240,490,6144,490,6048,490C5952,490,5856,490,5760,490C5664,490,5568,490,5472,490C5376,490,5280,490,5184,490C5088,490,4992,490,4896,490C4800,490,4704,490,4608,490C4512,490,4416,490,4320,490C4224,490,4128,490,4032,490C3936,490,3840,490,3744,490C3648,490,3552,490,3456,490C3360,490,3264,490,3168,490C3072,490,2976,490,2880,490C2784,490,2688,490,2592,490C2496,490,2400,490,2304,490C2208,490,2112,490,2016,490C1920,490,1824,490,1728,490C1632,490,1536,490,1440,490C1344,490,1248,490,1152,490C1056,490,960,490,864,490C768,490,672,490,576,490C480,490,384,490,288,490C192,490,96,490,48,490L0,490Z"/></svg>